<?xml version="1.0" encoding="UTF-8"?>
<svg xmlns="http://www.w3.org/2000/svg" id="Layer_1" data-name="Layer 1" viewBox="0 0 24 24">
  <path d="m9,24h-4.929c-.29,0-.565-.126-.755-.345s-.275-.51-.234-.797c.462-3.231,2.867-5.805,5.919-6.602v7.743Zm11.685-.345c-.19.219-.466.345-.756.345h-8.929v-8h2c3.955,0,7.359,2.948,7.919,6.858.041.287-.045.578-.234.797Zm-4.685-3.155c0-.828-.672-1.5-1.5-1.5s-1.5.672-1.5,1.5.672,1.5,1.5,1.5,1.5-.672,1.5-1.5ZM6.001,5.854v1.146s11.999,0,11.999,0v-.002l-.053-1.15c1.228-.409,2.053-1.554,2.053-2.848,0-1.654-1.346-3-3-3-.641,0-1.407.206-2.096.553-.618-.22-1.747-.553-2.904-.553s-2.286.333-2.905.553c-.688-.347-1.455-.553-2.095-.553-1.654,0-3,1.346-3,3,0,1.294.825,2.438,2.001,2.854Zm0,3.146c0,1.687.716,3.305,1.964,4.44,1.106,1.006,2.557,1.559,4.049,1.559.19,0,.382-.009.573-.027,2.967-.283,5.305-2.885,5.41-5.972H6Z"/>
</svg>
