<?xml version="1.0" encoding="UTF-8"?>
<svg xmlns="http://www.w3.org/2000/svg" id="Layer_1" data-name="Layer 1" viewBox="0 0 24 24">
  <circle cx="12.5" cy="2.5" r="2.5"/>
  <path d="m20.447,12.402l-2.843-1.422c-.327-.163-.603-.413-.797-.723l-1.48-2.351c-.054-.078-1.321-1.907-3.327-1.907h-.879c-1.214,0-2.431.287-3.518.83l-2.096,1.049c-.77.384-1.338,1.082-1.559,1.914l-.783,2.951c-.142.534.177,1.082.71,1.223.534.139,1.082-.177,1.223-.71l.783-2.951c.073-.277.262-.51.519-.638l2.097-1.049c.197-.099.4-.185.607-.26l-1.026,4.385c-.301,1.286.291,2.64,1.439,3.292l3.977,2.258c.312.178.506.511.506.87v3.836c0,.552.447,1,1,1s1-.448,1-1v-3.836c0-1.077-.581-2.076-1.518-2.609l-1.95-1.108,1.538-5.784,1.044,1.659c.39.62.942,1.121,1.597,1.447l2.842,1.421c.144.072.296.105.446.105.367,0,.72-.202.896-.553.247-.494.047-1.095-.447-1.342Z"/>
  <path d="m9.19,17.865c-.008-.005-.016-.01-.024-.014-.568-.34-1.304-.029-1.454.616l-.153.661-1.61,3.452c-.308.661.174,1.419.904,1.419.386,0,.738-.223.903-.573l1.654-3.514.228-.993c.095-.412-.086-.838-.449-1.055Z"/>
</svg>
